<?xml version="1.0" standalone="no"?>
<!DOCTYPE svg PUBLIC "-//W3C//DTD SVG 20010904//EN"
 "http://www.w3.org/TR/2001/REC-SVG-20010904/DTD/svg10.dtd">
<svg version="1.0" xmlns="http://www.w3.org/2000/svg"
 width="164.000000pt" height="164.000000pt" viewBox="0 0 164.000000 164.000000"
 preserveAspectRatio="xMidYMid meet">
<metadata>
Created by potrace 1.14, written by Peter Selinger 2001-2017
</metadata>
<g transform="translate(0.000000,164.000000) scale(0.100000,-0.100000)"
fill="#000000" stroke="none">
<path d="M130 896 l0 -543 64 -7 c35 -3 71 -3 80 0 9 3 36 3 61 0 l44 -7 3
-72 3 -72 448 -3 447 -2 0 324 0 324 79 74 c120 112 173 175 173 205 0 33
-118 153 -151 153 -11 0 -39 -16 -61 -36 l-40 -36 0 41 0 41 -125 0 -124 0 -3
78 -3 77 -447 3 -448 2 0 -544z m870 449 l0 -65 -310 0 c-289 0 -310 -1 -310
-17 0 -15 -10 -19 -53 -21 -66 -3 -77 -18 -77 -100 0 -74 12 -102 44 -102 52
0 86 -12 86 -31 0 -16 -8 -19 -47 -19 -70 0 -83 -17 -83 -106 0 -90 11 -104
81 -104 48 0 49 -1 49 -30 0 -29 -1 -30 -47 -30 -69 0 -83 -17 -83 -103 0 -89
14 -107 82 -107 l48 0 0 -70 0 -70 -110 0 -110 0 0 520 0 520 420 0 420 0 0
-65z m250 -137 c0 -43 -2 -45 -244 -286 -234 -234 -244 -246 -261 -303 -13
-41 -22 -56 -29 -49 -5 5 -45 10 -87 10 -101 0 -109 -8 -109 -105 0 -97 8
-105 109 -105 79 0 101 9 101 41 0 9 11 19 24 23 13 3 32 9 42 13 11 4 15 3
11 -4 -5 -8 7 -9 35 -6 56 7 61 13 12 13 l-39 1 50 19 c30 12 74 20 112 20 69
0 95 17 33 22 l-40 3 140 141 140 141 0 -289 0 -288 -420 0 -420 0 0 515 0
515 420 0 420 0 0 -42z m-932 -131 c12 -3 11 -5 -5 -6 -22 -1 -23 2 -21 72 l2
72 3 -67 c3 -53 7 -68 21 -71z m1096 -71 c-11 -14 -21 -26 -24 -26 -3 0 -37
31 -75 70 l-69 69 24 26 23 25 70 -69 69 -69 -18 -26z m-247 -144 c-81 -81
-147 -154 -147 -163 0 -20 -20 -39 -41 -39 -14 0 -99 -81 -99 -95 0 -3 11 -10
25 -15 14 -5 25 -13 25 -18 0 -4 -30 -18 -67 -30 l-68 -22 -24 25 -24 24 18
63 c18 62 24 68 239 286 l221 222 45 -45 45 -45 -148 -148z m-849 91 c-15 -4
-18 -16 -18 -68 0 -52 3 -64 18 -68 13 -4 11 -5 -5 -6 -22 -1 -23 3 -23 74 0
71 1 75 23 74 16 -1 18 -2 5 -6z m0 -270 c-26 -7 -26 -129 0 -136 13 -4 11 -5
-5 -6 -22 -1 -23 3 -23 74 0 71 1 75 23 74 16 -1 18 -2 5 -6z m379 -180 c-3
-10 -5 -2 -5 17 0 19 2 27 5 18 2 -10 2 -26 0 -35z m-67 -92 c33 1 63 -1 67
-4 3 -4 -26 -7 -65 -7 l-72 0 2 73 2 72 3 -68 4 -68 59 2z m51 38 c-5 -13 -10
-19 -10 -12 -1 15 10 45 15 40 3 -2 0 -15 -5 -28z"/>
<path d="M530 1071 c-5 -11 -10 -51 -10 -89 0 -90 12 -102 104 -102 101 0 106
5 106 103 0 51 -5 88 -12 95 -7 7 -44 12 -95 12 -71 0 -84 -3 -93 -19z m42
-46 c2 -19 0 -35 -4 -35 -4 0 -8 16 -8 35 0 19 2 35 4 35 2 0 6 -16 8 -35z
m125 13 c-3 -8 -6 -5 -6 6 -1 11 2 17 5 13 3 -3 4 -12 1 -19z m-44 -33 c-32
-40 -36 -41 -54 -17 -12 15 -12 16 2 5 13 -11 20 -8 44 17 39 40 42 38 8 -5z
m47 -50 l0 -45 -70 0 -70 0 0 32 0 32 29 -28 29 -28 37 41 c21 23 39 41 41 41
2 0 4 -20 4 -45z"/>
<path d="M657 945 c-18 -25 -18 -25 8 -25 20 0 25 5 25 25 0 31 -10 31 -33 0z"/>
<path d="M570 935 c0 -8 7 -15 16 -15 14 0 14 3 4 15 -7 8 -14 15 -16 15 -2 0
-4 -7 -4 -15z"/>
<path d="M532 818 c-18 -18 -16 -162 2 -177 9 -8 46 -11 103 -9 l88 3 3 75 c5
122 7 120 -96 120 -55 0 -92 -4 -100 -12z m167 -35 c0 -11 -3 -13 -6 -5 -3 8
-26 12 -64 12 -66 0 -78 -16 -36 -50 22 -18 22 -18 57 13 l35 32 -34 -37 c-31
-34 -35 -36 -56 -22 -12 8 -25 11 -28 7 -4 -3 -7 10 -7 30 l0 37 70 0 c60 0
70 -2 69 -17z m1 -83 l0 -40 -70 0 c-69 0 -70 0 -70 27 l0 26 23 -21 c31 -29
37 -28 77 13 19 19 35 35 37 35 2 0 3 -18 3 -40z"/>
<path d="M660 695 l-23 -25 26 0 c22 0 27 5 27 25 0 14 -1 25 -3 25 -2 0 -14
-11 -27 -25z"/>
<path d="M570 680 c0 -5 5 -10 11 -10 5 0 7 5 4 10 -3 6 -8 10 -11 10 -2 0 -4
-4 -4 -10z"/>
</g>
</svg>
